<?xml version="1.0" encoding="utf-8"?>
<!-- Generator: Adobe Illustrator 17.1.0, SVG Export Plug-In . SVG Version: 6.00 Build 0)  -->
<!DOCTYPE svg PUBLIC "-//W3C//DTD SVG 1.1//EN" "http://www.w3.org/Graphics/SVG/1.1/DTD/svg11.dtd">
<svg version="1.1" id="Layer_1" xmlns="http://www.w3.org/2000/svg" xmlns:xlink="http://www.w3.org/1999/xlink" x="0px" y="0px"
	 viewBox="0 0 720 792" enable-background="new 0 0 720 792" xml:space="preserve">
<path fill="#21409A" d="M363.5,290.8h53.1c0,0,50.5,0,50.5,48.3c0,54.7,0,102.3,0,118.9c0,11.1-22.4,13.8-25.4,0.1
	c0-0.1,0-107.4,0-107.4c0-6.1,0.2-7.3-1.6-7.3h-15.4c-2,0-1.5,1.8-1.5,7.3v109.2c0,4-3.3,7.3-7.3,7.3h-52.3"/>
<path fill="none" stroke="#FFFFFF" stroke-width="2.6503" stroke-miterlimit="10" d="M406.1,344.4c1.5-3.8,0.6-3.8,0.6-3.8
	c0.5-4.2,0-3.5,0-3.5c0.2-4.9-1-4.6-1-4.6c0.1-2.3-0.8-3.8-0.8-3.8c0.1-2.7-1.8-8-5.6-11.1c-3.8-3.1-4.8-1.1-4.8-1.1
	s-1.4,1.8-1.9,1.4c-1.8-1.3-2.5-0.9-2.6-0.8c-0.2-0.1-0.9-0.5-2.6,0.8c-0.6,0.4-1.9-1.4-1.9-1.4s-1-2.1-4.8,1.1
	c-3.8,3.1-5.7,8.5-5.6,11.1c0,0-0.8,1.5-0.8,3.8c0,0-1.2-0.3-1,4.6c0,0-0.5-0.7,0,3.5c0,0-0.9,0,0.6,3.8c0,0-0.5,1.1,0.5,1.7
	c0,0-1.3,3,1.2,5.3c0,0,0.1,2.8,1.9,3.1c0,0,0.8,3.2,3,3.6c0,0,0.8,2.9,3.1,3c0,0,0.6,2.7,3.1,2.5c0,0,0.3,1.3,2.1,0.8
	c0,0,0.2-0.3,0.4,0.1c0.2,0.3,0.5,0.4,0.8,0c0.3,0.3,0.6,0.3,0.8,0c0.2-0.4,0.4-0.1,0.4-0.1c1.8,0.5,2.1-0.8,2.1-0.8
	c2.6,0.2,3.1-2.5,3.1-2.5c2.4,0,3.1-3,3.1-3c2.2-0.4,3-3.6,3-3.6c1.8-0.3,1.9-3.1,1.9-3.1c2.5-2.3,1.2-5.3,1.2-5.3
	C406.6,345.5,406.1,344.4,406.1,344.4z"/>
<path fill="#FFFFFF" d="M380.5,326.1l1.3,1.7c0.1,0.1,0.3,0.2,0.5,0.1c1.5-1,8.9-5.5,15.5,0.2c0,0,0.3,0.3,1-0.9
	c0.3-0.5,0.5-0.8,0.6-1c0.2-0.2,0.1-0.6-0.1-0.7c-1.9-1.3-10-5.8-18.6-0.1C380.4,325.5,380.3,325.8,380.5,326.1z"/>
<path fill="none" stroke="#FFFFFF" stroke-width="1.3251" stroke-miterlimit="10" d="M377,348.7l1.8-2.3c0.2-0.2,0.4-0.3,0.7-0.1
	c2.1,1.4,12.4,7.8,21.7-0.3c0,0,0.4-0.4,1.4,1.2c0.4,0.6,0.7,1.1,0.9,1.4c0.2,0.3,0.1,0.8-0.2,1c-2.7,1.8-14,8.2-26.1,0.1
	C376.9,349.5,376.8,349,377,348.7z"/>
<path fill="none" stroke="#FFFFFF" stroke-width="1.3251" stroke-miterlimit="10" d="M400.2,332.9l-1.3,1.8
	c-0.1,0.2-0.3,0.2-0.5,0.1c-1.6-1.1-9.4-5.8-16.4,0.2c0,0-0.3,0.3-1.1-0.9c-0.3-0.5-0.5-0.8-0.7-1c-0.2-0.2-0.1-0.6,0.1-0.8
	c2.1-1.3,10.6-6.2,19.7-0.1C400.4,332.4,400.4,332.7,400.2,332.9z"/>
<path fill="#FFFFFF" d="M386.7,355.8c0,0,1,0.7,0.9,3.3h6c0,0-0.4-2.4,0.2-3.3C393.8,355.8,390.8,357.3,386.7,355.8z"/>
<path fill="#21409A" d="M363.3,261.2c0.6,0,1.4,0,1.9,0c0.7,0,1.2,0,1.9,0c30.1-1.2,51.7-27.8,51.7-60.6c0-32.3-21-58.9-50.4-60.8
	c-1.1-0.1-1.9-0.1-3-0.1c-0.9,0-1.2,0-2.1,0.1"/>
<circle fill="#FFFFFF" cx="390.2" cy="341.3" r="7"/>
<circle fill="#21409A" stroke="#FFFFFF" stroke-width="0.3313" stroke-miterlimit="10" cx="390.2" cy="341.3" r="5.6"/>
<path fill="none" stroke="#A7A9AC" stroke-width="4.8174" stroke-miterlimit="10" d="M425.1,200.6c0,36.8-29.3,66.8-65.8,67.9
	c-0.7,0-1.6,0-2.4,0c-0.8,0-1.4,0-2.3,0c-36.3-1.3-65.4-31.2-65.4-67.9c0-36.2,28.3-65.7,63.9-67.8c1.3-0.1,2.3-0.1,3.7-0.1
	c1,0,2.4,0,3.5,0.1C396.3,134.4,425.1,164.1,425.1,200.6"/>
<path fill="#21409A" stroke="#FFFFFF" stroke-width="3.9754" stroke-miterlimit="10" d="M363.3,103.7c0,0,15.9-0.4,18.8,5.9
	c3.8,7.9,12,6.8,17.5,7.4c4.8,0.5,15.6,2.7,16.6,15.7c0.9,12.3,8.9,15,8.9,15s4.7,6.3-8.1,20.1c0,0-29.8-12.2-53.7-6.1"/>
<path fill="#21409A" stroke="#FFFFFF" stroke-width="2.5946" stroke-miterlimit="10" d="M363.6,112.3c0,0,1.2,5.1,5.4,4.8
	c2.2-0.1,7.4-2.7,7.4-2.7l2.5,3.9c0,0-4.5,2.2-4,5.7c0.6,5.2,3.9,5.8,4.9,8.4c6,15.9-16.4,15.8-16.4,24.5"/>
<g>
	<path fill="none" stroke="#A7A9AC" stroke-width="4.2152" stroke-miterlimit="10" d="M350.9,284.2h-53.1c0,0-57.2-0.3-57.2,48.1
		c0,54.7,0.1,109.1,0,125.7c-0.2,18.1,34,25,37.3,0.1c0-0.1,0-0.2,0-0.2V350.7c0-0.9,0.7-1.6,1.6-1.6h4.6c0.9,0,1.6,0.7,1.6,1.6
		v114.6c0,4,3.3,7.3,7.3,7.3h57.8"/>
	<path fill="none" stroke="#A7A9AC" stroke-width="4.2152" stroke-miterlimit="10" d="M350.9,524.8h-1.5h-0.8
		c-2.6,0-4.6,2.1-4.6,4.6v137.1c0,10.7-9.4,19.5-21,19.5h-19.3c-11.6,0-21-8.7-21-19.5V491.9c0-3.6,2-6.2,4.3-7.9
		c2.9-2.2,6.5-3.3,10.2-3.3h53.7"/>
	<path fill="none" stroke="#A7A9AC" stroke-width="4.2152" stroke-miterlimit="10" d="M363.4,284.2h53.1c0,0,57.2-0.3,57.2,48.1
		c0,54.7-0.1,109.1,0,125.7c0.2,18.1-34,25-37.3,0.1c0-0.1,0-0.2,0-0.2V350.7c0-0.9-0.7-1.6-1.6-1.6h-4.6c-0.9,0-1.6,0.7-1.6,1.6
		v114.6c0,4-3.3,7.3-7.3,7.3h-57.8"/>
	<path fill="none" stroke="#A7A9AC" stroke-width="4.2152" stroke-miterlimit="10" d="M363.4,480.6h53.8c3.7,0,7.3,1.1,10.2,3.3
		c2.3,1.8,4.3,4.4,4.3,7.9v174.6c0,10.7-9.4,19.5-21,19.5h-19.3c-11.6,0-21-8.7-21-19.5V529.4c0-2.6-2.1-4.6-4.6-4.6h-0.8h-1.5"/>
	<line fill="none" stroke="#A7A9AC" stroke-width="4.2152" stroke-miterlimit="10" x1="357.2" y1="95.2" x2="357.2" y2="711.8"/>
</g>
<path fill="none" stroke="#FFFFFF" stroke-width="4.5055" stroke-miterlimit="10" d="M360,183.3c0,0,48.8-4.3,56.6-15.6"/>
<path fill="#21409A" stroke="#FFFFFF" stroke-width="0.9795" stroke-miterlimit="10" d="M364.1,121.9c0,0,0.9,2.7,3.6,2.5
	c1.4-0.1,3-1,3-1l0.8,1c0,0-1.2,1.9-1,4.1c0.4,3.1,2.5,4,3.1,5.6c3.7,9.7-9.5,8.4-9.5,13.7"/>
<path fill="#DB1F26" d="M351.1,520.9h-7.2H343c-2.6,0-4.6,2.1-4.6,4.6v134.6c0,10.7-9.4,19.5-21,19.5h-7.7c-11.6,0-21-8.7-21-19.5
	V498.6c0-3.6,2-6.2,4.3-7.9c2.9-2.2,6.5-3.3,10.2-3.3H351"/>
<path fill="#21409A" d="M363.3,520.9h7.2h0.8c2.6,0,4.6,2.1,4.6,4.6v134.6c0,10.7,9.4,19.5,21,19.5h7.7c11.6,0,21-8.7,21-19.5V498.6
	c0-3.6-2-6.2-4.3-7.9c-2.9-2.2-6.5-3.3-10.2-3.3h-47.8"/>
<path fill="#EEA68E" d="M347,261.3c0.6,0,1.1,0,1.8,0c0.5,0,1.3,0,1.8,0v-44.5h-52.2C304.3,241.8,323.7,260.3,347,261.3z"/>
<path fill="#E78065" d="M296.5,201.7c0.1,5.2,0.7,10.3,1.9,15.1h52.2v-15.1H296.5z"/>
<path fill="#DB1F26" d="M348.7,139.8c-1,0-1.8,0-2.8,0.1c-20.3,1.4-37.5,16.1-45.1,36.7h49.9v-36.8
	C349.8,139.9,349.5,139.8,348.7,139.8z"/>
<path fill="#E15840" d="M296.5,200.6c0,0.4,0,0.8,0,1.2h54.1v-25.2h-49.9C298,184,296.5,192.1,296.5,200.6z"/>
<g>
	<text transform="matrix(1 0 0 1 311.8885 737.5745)"><tspan x="0" y="0" fill="#939598" font-family="'ProximaNova-Bold'" font-size="17.5866">5,824 Total </tspan><tspan x="-32.4" y="21.1" fill="#939598" font-family="'ProximaNova-Bold'" font-size="17.5866">Compiled Shootings</tspan></text>
</g>
<g>
	<text transform="matrix(1 0 0 1 304.2004 78.8734)" fill="#939598" font-family="'ProximaNova-Bold'" font-size="14.2871">Victims vs Police</text>
</g>
<line fill="none" stroke="#A7A9AC" stroke-width="1.8065" stroke-miterlimit="10" x1="305.1" y1="157" x2="195.7" y2="157"/>
<line fill="none" stroke="#A7A9AC" stroke-width="1.8065" stroke-miterlimit="10" x1="289.2" y1="185.8" x2="195.7" y2="185.8"/>
<line fill="none" stroke="#A7A9AC" stroke-width="1.8065" stroke-miterlimit="10" x1="289.2" y1="211.4" x2="195.7" y2="211.4"/>
<line fill="none" stroke="#A7A9AC" stroke-width="1.8065" stroke-miterlimit="10" x1="300.7" y1="239" x2="195.7" y2="239"/>
<g>
	<text transform="matrix(1 0 0 1 138.532 159.6478)" fill="#6D6E71" font-family="'ProximaNova-Bold'" font-size="16.7112">White</text>
</g>
<g>
	<text transform="matrix(1 0 0 1 141.0222 191.7367)" fill="#6D6E71" font-family="'ProximaNova-Bold'" font-size="16.7112">Black</text>
</g>
<g>
	<text transform="matrix(1 0 0 1 112.4236 243.9584)" fill="#6D6E71" font-family="'ProximaNova-Bold'" font-size="16.7112">Unknown</text>
</g>
<g>
	<text transform="matrix(1 0 0 1 102.0466 216.8021)" fill="#6D6E71" font-family="'ProximaNova-Bold'" font-size="16.7112">Other/Hisp</text>
</g>
<g>
	<text transform="matrix(1 0 0 1 106.8054 158.6068)" fill="#939598" font-family="'ProximaNova-Regular'" font-size="12.5334">29.1%</text>
</g>
<g>
	<text transform="matrix(1 0 0 1 106.825 190.6986)" fill="#939598" font-family="'ProximaNova-Regular'" font-size="12.5334">22.1%</text>
</g>
<g>
	<text transform="matrix(1 0 0 1 63.8181 215.763)" fill="#939598" font-family="'ProximaNova-Regular'" font-size="12.5334">15.6%</text>
</g>
<g>
	<text transform="matrix(1 0 0 1 68.4011 242.9203)" fill="#939598" font-family="'ProximaNova-Regular'" font-size="12.5334">33.2%</text>
</g>
<g>
	<text transform="matrix(1 0 0 1 48.3064 346.5062)" fill="#939598" font-family="'ProximaNova-Regular'" font-size="12.5334">51%</text>
</g>
<g>
	<text transform="matrix(1 0 0 1 47.4099 417.5648)" fill="#939598" font-family="'ProximaNova-Regular'" font-size="12.5334">37%</text>
</g>
<g>
	<text transform="matrix(1 0 0 1 50.4246 452.1224)" fill="#939598" font-family="'ProximaNova-Regular'" font-size="12.5334">9%</text>
</g>
<g>
	<text transform="matrix(1 0 0 1 50.6375 466.6497)" fill="#939598" font-family="'ProximaNova-Regular'" font-size="12.5334">3%</text>
</g>
<path fill="#DB1F26" d="M247.3,345.6v42.6h0C247.3,375,247.3,360.6,247.3,345.6z"/>
<path fill="none" d="M272.8,388.2c0,18,0,38.6,0,52.8h18.6v-52.8H272.8z"/>
<g>
	<path fill="#EEA68E" d="M247.3,458c0,11.1,22.4,13.8,25.4,0.1c0,0,0-1.4,0-3.9h-25.4C247.3,455.6,247.3,456.9,247.3,458z"/>
	<path fill="#EEA68E" d="M291.3,459.9c0,4,3.3,7.3,7.3,7.3h52.3v-13h-59.6V459.9z"/>
</g>
<path fill="#DB1F26" d="M297.8,290.8c0,0-50.5,0-50.5,48.7v6.5c0,15.1,0,29.6,0,42.9h25.5c0-20.7,0-37.8,0-37.8
	c0-6.1-0.2-7.3,1.6-7.3h15.4c2,0,1.5,1.9,1.5,7.3V389h59.6v-98.2H297.8z"/>
<path fill="#E15840" d="M247.3,388.2L247.3,388.2l0,52.8h0C247.3,427.6,247.3,409.4,247.3,388.2z"/>
<g>
	<path fill="#E15840" d="M247.3,388.2c0,21.7,0,40.5,0,54.2h25.4c0-14.5,0-35.7,0-54.2H247.3z"/>
	<rect x="291.3" y="388.2" fill="#E15840" width="59.6" height="54.2"/>
</g>
<g>
	<path fill="#E78065" d="M247.3,455.4h25.4c0-3.3,0-8.3,0-14.5h-25.4C247.3,445.8,247.3,451,247.3,455.4z"/>
	<rect x="291.3" y="441" fill="#E78065" width="59.6" height="14.5"/>
</g>
<line fill="none" stroke="#A7A9AC" stroke-width="1.8065" stroke-miterlimit="10" x1="240.6" y1="341.9" x2="151.4" y2="341.9"/>
<line fill="none" stroke="#A7A9AC" stroke-width="1.8065" stroke-miterlimit="10" x1="240.6" y1="414.5" x2="214.9" y2="414.5"/>
<line fill="none" stroke="#A7A9AC" stroke-width="1.8065" stroke-miterlimit="10" x1="240.6" y1="448.2" x2="131.1" y2="448.2"/>
<line fill="none" stroke="#A7A9AC" stroke-width="1.8065" stroke-miterlimit="10" x1="240.6" y1="460.7" x2="131.1" y2="460.7"/>
<g>
	<text transform="matrix(1 0 0 1 73.4715 346.8353)" fill="#6D6E71" font-family="'ProximaNova-Bold'" font-size="14.1042">Unreported</text>
</g>
<g>
	<text transform="matrix(1 0 0 1 73.3533 417.8929)" fill="#6D6E71" font-family="'ProximaNova-Bold'" font-size="14.1042">Pending Investigation</text>
</g>
<g>
	<text transform="matrix(1 0 0 1 73.4724 466.9769)" fill="#6D6E71" font-family="'ProximaNova-Bold'" font-size="14.1042">Charged</text>
</g>
<g>
	<text transform="matrix(1 0 0 1 73.4724 452.4505)" fill="#6D6E71" font-family="'ProximaNova-Bold'" font-size="14.1042">Justified</text>
</g>
<rect x="223" y="30.4" fill="none" width="271.1" height="24.6"/>
<text transform="matrix(1 0 0 1 223.0008 41.7318)" fill="#6D6E71" font-family="'ProximaNova-Bold'" font-size="17">Ratio(s) of Race and Despositions</text>
</svg>
